<svg xmlns="http://www.w3.org/2000/svg" xml:space="preserve" width="165.36159mm" height="156.44981mm" viewBox="0 0 165.36159 156.44981"><defs><linearGradient id="b" x1="110.82898" x2="110.82898" y1="729.64789" y2="596.07373" gradientTransform="matrix(0 -.70582 .70582 0 -420.72 156.453)" gradientUnits="userSpaceOnUse" href="#a"/><linearGradient id="a"><stop offset="0" style="stop-color:#9d3235;stop-opacity:1"/><stop offset="1" style="stop-color:#a7383b;stop-opacity:1"/></linearGradient></defs><g style="stroke:none;fill:#a23538;fill-opacity:1" transform="matrix(.69988 0 0 .70707 67.327 -376.957)"><g style="stroke:none;fill:#a23538;fill-opacity:1" transform="translate(.113 -21.72)"><rect width="139.95872" height="127.75813" y="-729.41211" class="st13" rx="0" ry="0" style="fill:#a23538;stroke:none;stroke-width:.579904;stroke-linecap:round;stroke-linejoin:round;fill-opacity:1" transform="scale(1 -1)"/></g><g style="stroke:none;fill:#a23538;fill-opacity:1" transform="translate(.061 -126.608)"><ellipse cx="70.006104" cy="706.54102" class="st14" rx="70.006104" ry="23.1049" style="fill:#a23538;stroke:none;stroke-width:.74279;stroke-linecap:round;stroke-linejoin:round;fill-opacity:1"/></g><g style="stroke:none;fill:#a23538;fill-opacity:1"><ellipse cx="-70.006104" cy="707.62201" class="st14" rx="70.065331" ry="22.024" style="fill:#a23538;stroke:none;stroke-width:.74279;stroke-linecap:round;stroke-linejoin:round;fill-opacity:1" transform="scale(-1 1)"/></g></g><g style="fill:#fff;fill-opacity:1;stroke:none" transform="matrix(.69265 0 0 .6927 73.468 -396.698)"><path d="m124.76 675.211-.15 32.818c-8.564 22.763-119.112 20.729-124.61.21V675.53c11.913 20.635 112.32 21.228 124.76-.32z" class="st15" style="fill:#fff;fill-opacity:1;stroke:none;stroke-width:.566929;stroke-linecap:round;stroke-linejoin:round"/></g><g style="fill:#000;fill-opacity:1;stroke:none" transform="matrix(.69265 0 0 .6927 73.468 -367.735)"><path d="m124.76 674.26-.15 33.03C116.046 730.054 5.498 728.019 0 707.5v-32.92c11.913 20.634 112.32 21.228 124.76-.32z" class="st15" style="fill:#fff;fill-opacity:1;stroke:none;stroke-width:.566929;stroke-linecap:round;stroke-linejoin:round"/></g><g style="fill:#fff;fill-opacity:1;stroke:none" transform="matrix(.69265 0 0 .6927 73.468 -425.711)"><path d="m125.021 674.24-.411 33.636c-8.564 22.764-119.112 20.73-124.61.21l.261-33.525c11.913 20.634 112.32 21.227 124.76-.32Z" class="st15" style="fill:#fff;fill-opacity:1;stroke:none;stroke-width:.566929;stroke-linecap:round;stroke-linejoin:round"/></g><g style="fill:#fff;fill-opacity:1;stroke:none" transform="matrix(.67953 0 0 .6936 74.57 -459.397)"><ellipse cx="62.707802" cy="711.75598" class="st16" rx="62.707802" ry="17.8904" style="fill:#fff;fill-opacity:1;stroke:none"/></g><path d="M94.284 156.453V0L0 15.641v125.164Z" class="st25" style="fill:url(#b);fill-opacity:1;stroke:none;stroke-width:.176456"/><path d="m50.243 50.801-11.998.713-15.202 52.28 10.445.62c.79-3.824 1.686-7.625 2.69-11.398l15.293.508 2.922 12.133 11.772.705a467.96 467.96 0 0 1-6.542-22.522zM43.82 61.422c.132.887.168 1.477.52 3.054l4.574 19.36h-10.7l5.06-19.228c.443-1.738.397-2.209.546-3.186z" class="st24" style="fill:#fff;fill-opacity:1;stroke-width:.705783;stroke:none"/></svg>